<svg width="164" height="28" viewBox="0 0 164 28" fill="none" xmlns="http://www.w3.org/2000/svg">
<path fill-rule="evenodd" clip-rule="evenodd" d="M13.734 24.8775C8.01933 24.8775 3.14145 19.6942 3.14145 14.0406C3.14145 8.40792 7.91724 3.12167 13.693 3.12167C17.4897 3.12167 20.2236 4.95851 22.4488 7.83637H25.2446C24.4078 6.32588 23.5099 4.93843 22.1425 3.8564C19.7952 1.95848 16.7541 0.836304 13.734 0.836304C6.48878 0.836304 0.59082 6.81629 0.59082 14.0205C0.59082 21.2449 6.5708 27.1637 13.7751 27.1637C16.714 27.1637 19.5919 26.0826 21.8982 24.2658C23.3476 23.1026 24.3676 21.5922 25.3476 20.0407H22.5517C20.3467 22.9185 17.5308 24.8775 13.734 24.8775ZM42.7151 11.1017C40.9603 8.83637 38.5719 7.40791 35.6129 7.40791C30.3066 7.40791 25.9392 11.7151 25.9392 17.0214C25.9392 22.3269 30.3276 26.6742 35.6129 26.6742C38.695 26.6742 40.8372 25.388 42.7151 23.0206V26.2449H45.0214V7.85643H42.7151V11.1017ZM35.4908 24.5512C31.4288 24.5512 28.2246 21.0206 28.2246 17.0415C28.2246 13.0816 31.4087 9.53097 35.4908 9.53097C39.5519 9.53097 42.7151 13.0825 42.7151 17.0415C42.7151 21.0206 39.5309 24.5512 35.4908 24.5512ZM47.8172 26.2449H50.2876V1.36598H47.8172V26.2449ZM59.614 23.326L53.3688 7.85643H50.9193L58.4098 26.2449H60.8994L68.3698 7.85643H65.9614L59.614 23.326ZM69.3898 26.2449H71.8593V7.85643H69.3898V26.2449ZM69.3898 5.48905H71.8593V1.36598H69.3898V5.48905ZM82.4929 7.40704C80.1657 7.40704 78.513 8.63218 76.9824 10.2648V7.85643H74.6962V26.2449H77.1246V15.0397C77.1046 12.0807 79.5531 9.53009 82.5331 9.53009C86.2669 9.53009 88.1448 12.7753 88.1448 16.1226V26.2458H90.4302V16.1226C90.431 11.3469 87.6361 7.40704 82.4929 7.40704ZM113.351 1.36598L102.126 15.6322V1.36598H99.6973V26.2449H102.126V19.408L105.31 15.449L113.412 26.2449H116.495L106.86 13.4891L116.495 1.36598H113.351ZM117.392 26.2449H119.801V1.36598H117.392V26.2449ZM139.74 12.4891C138.067 9.36605 134.719 7.40704 131.188 7.40704C125.923 7.40704 121.473 11.7954 121.473 17.0607C121.473 22.3662 125.964 26.6733 131.231 26.6733C133.739 26.6733 136.211 25.6733 138.026 23.9386C139.129 22.8976 139.781 21.5913 140.372 20.2239H137.781C136.474 22.7754 134.168 24.5503 131.187 24.5503C129.372 24.5503 127.596 23.8156 126.25 22.5703C124.861 21.3059 124.249 19.7536 123.983 17.9176H140.945C140.945 15.9996 140.679 14.1628 139.74 12.4891ZM124.066 15.7954C124.802 12.3469 127.515 9.53009 131.231 9.53009C134.353 9.53009 137.7 11.449 138.435 15.7954H124.066ZM142.741 26.2449H145.169V7.85643H142.741V26.2449ZM142.741 5.57107H145.169V1.36598H142.741V5.57107ZM155.844 7.40704C153.475 7.40704 151.822 8.63218 150.271 10.2648V7.85643H147.945V26.2449H150.394V15.0397C150.374 12.0607 152.884 9.53009 155.884 9.53009C159.599 9.53009 161.559 12.7753 161.559 16.1226V26.2458H163.844V16.1226C163.844 11.3469 161.007 7.40704 155.844 7.40704Z" fill="white"/>
</svg>
