<svg width="24" height="24" viewBox="0 0 24 24" fill="none" xmlns="http://www.w3.org/2000/svg">
<path d="M8.7168 7C10.1983 7 11.5488 7.54227 12.5645 8.43164C11.3681 9.51858 11.4067 9.58279 10.9365 10.0352C10.3491 9.56784 9.70839 9.23242 8.7168 9.23242C6.84121 9.23252 5.37695 10.6956 5.37695 12.5C5.37695 14.3044 6.84121 15.7675 8.7168 15.7676C10.5702 15.7676 11.3233 14.998 11.8076 13.5859C10.9132 13.5859 8.7168 13.5889 8.7168 13.5889V11.4111H14.208C14.5903 14.0468 13.4361 18 8.7168 18C5.55947 17.9999 3 15.5375 3 12.5C3 9.46248 5.55947 7.0001 8.7168 7ZM19.0186 9.61426V11.5195H21V12.8809H19.0186V14.8418H17.6035V12.8809H15.5664V11.5195H17.6035V9.61426H19.0186Z" fill="black"/>
</svg>
