<svg width="124" height="30" viewBox="0 0 124 30" fill="none" xmlns="http://www.w3.org/2000/svg">
<g clip-path="url(#clip0_34_151)">
<path d="M111.837 9.70525L111.607 9.77803C110.712 7.9279 109.434 6.45511 107.771 5.35966C106.135 4.26418 104.077 3.71644 101.596 3.71644C100.215 3.71644 98.8985 3.99638 97.6455 4.55626C96.3926 5.09186 95.293 5.85869 94.3469 6.85675C93.4264 7.83049 92.6848 9.01116 92.1223 10.3988C91.5597 11.7864 91.2785 13.32 91.2785 14.9997C91.2785 16.6794 91.5597 18.2131 92.1223 19.6007C92.6848 20.9882 93.4264 22.1811 94.3469 23.1791C95.293 24.1529 96.3926 24.9076 97.6455 25.4431C98.8985 25.9787 100.215 26.2464 101.596 26.2464C104.051 26.2464 106.045 25.8813 107.58 25.151C109.139 24.3963 110.456 23.2522 111.53 21.7186L111.76 21.7913L111.684 24.1283C111.096 24.7126 110.418 25.236 109.651 25.6985C108.884 26.1367 108.053 26.514 107.158 26.8305C106.289 27.1226 105.381 27.3417 104.435 27.4877C103.489 27.6583 102.543 27.7436 101.596 27.7436C99.6276 27.7436 97.7481 27.4393 95.9582 26.8307C94.1683 26.2221 92.5957 25.37 91.2404 24.2746C89.8852 23.1548 88.8112 21.8159 88.0185 20.2579C87.2258 18.6756 86.8295 16.9228 86.8295 14.9997C86.8295 13.0765 87.2258 11.336 88.0185 9.778C88.8112 8.19563 89.8852 6.84456 91.2404 5.72478C92.5956 4.60496 94.1682 3.75292 95.9582 3.16868C97.7481 2.56007 99.6276 2.25577 101.596 2.25577C102.543 2.25577 103.489 2.3288 104.435 2.47486C105.381 2.62092 106.289 2.85219 107.158 3.16868C108.053 3.4608 108.884 3.83814 109.651 4.30068C110.418 4.73887 111.096 5.25008 111.684 5.83432L111.837 9.70525ZM27.316 16.6798C27.0348 16.8013 26.7663 16.9596 26.5105 17.1547C26.2546 17.3493 26.1267 17.6171 26.1267 17.958V22.4494C24.8993 24.1291 23.3267 25.4315 21.4089 26.3566C19.4911 27.2816 17.3688 27.7442 15.0418 27.7442C13.0729 27.7442 11.1935 27.4399 9.40356 26.8313C7.61364 26.2227 6.04105 25.3707 4.6858 24.2752C3.33056 23.1554 2.2566 21.8165 1.46389 20.2585C0.671232 18.6762 0.274902 16.9234 0.274902 15.0003C0.274902 13.0771 0.671232 11.3366 1.46389 9.7786C2.2566 8.19623 3.33056 6.84515 4.6858 5.72538C6.04105 4.60556 7.61364 3.75353 9.40356 3.16931C11.1935 2.56068 13.0729 2.25637 15.0418 2.25637C15.988 2.25637 16.9341 2.3294 17.8802 2.47546C18.8263 2.62152 19.7341 2.85279 20.6035 3.16928C21.4984 3.4614 22.3295 3.83874 23.0966 4.30128C23.8637 4.73946 24.5413 5.25068 25.1295 5.83492L25.2831 9.70553L25.053 9.77831C24.158 7.92817 22.8795 6.45537 21.2174 5.35991C19.5809 4.26443 17.5225 3.71669 15.0421 3.71669C13.6613 3.71669 12.3445 3.99664 11.0915 4.55654C9.83857 5.09212 8.73902 5.85894 7.79289 6.857C6.87234 7.83076 6.13081 9.01144 5.5683 10.399C5.00571 11.7866 4.72442 13.3203 4.72442 15C4.72442 16.6553 4.99291 18.1768 5.52991 19.5644C6.09248 20.952 6.83404 22.1448 7.75457 23.1429C8.70065 24.1167 9.80018 24.8835 11.0532 25.4434C12.3061 25.9789 13.6358 26.2467 15.0421 26.2467C17.7015 26.2467 19.9773 25.7598 21.8695 24.7861V17.9577C21.8695 17.6171 21.7289 17.3493 21.4478 17.1544C21.192 16.9598 20.9362 16.8014 20.6806 16.6794L20.7157 16.4971C20.8434 16.5193 21.0736 16.5436 21.4061 16.5699C21.7387 16.5921 22.0839 16.6164 22.4417 16.6426H25.7405C26.0474 16.6204 26.3414 16.5961 26.6227 16.5699C26.9039 16.5476 27.1211 16.5233 27.2746 16.4971L27.316 16.6798ZM55.0975 3.02293C54.8416 3.14451 54.5859 3.30281 54.3304 3.49785C54.0746 3.69245 53.934 4.05761 53.9087 4.59331C53.8854 5.17755 53.8599 5.92004 53.8323 6.82077C53.8323 7.69715 53.8206 8.69523 53.7972 9.81499C53.7972 10.9348 53.7855 12.152 53.7621 13.4666V17.5563C53.7387 19.1386 53.5341 20.4897 53.1482 21.6096C52.7646 22.7293 52.2532 23.6665 51.614 24.4212C51.0003 25.1759 50.3099 25.7723 49.5428 26.2105C48.8012 26.6487 48.0596 26.9773 47.3181 27.1964C46.6021 27.44 45.9245 27.586 45.2853 27.6346C44.646 27.7076 44.1474 27.7441 43.7894 27.7441C42.3319 27.7441 40.9255 27.5615 39.5702 27.1964C38.215 26.8557 37.026 26.2958 36.0031 25.5167C34.9803 24.7377 34.1621 23.7274 33.5484 22.4859C32.9347 21.2444 32.6278 19.7351 32.6278 17.958V13.8318V10.0341C32.6278 8.86557 32.6162 7.8188 32.5928 6.89377C32.5928 5.94435 32.5811 5.17752 32.5577 4.59328C32.5343 4.0577 32.3937 3.69255 32.136 3.49782C31.8802 3.30322 31.6245 3.14491 31.3689 3.0229L31.404 2.84055C31.5317 2.86281 31.7364 2.88707 32.0179 2.91333C32.3248 2.93559 32.6316 2.95985 32.9385 2.9861C33.271 2.9861 33.5907 2.99724 33.8974 3.0195H35.2782C35.585 2.99724 35.9047 2.9861 36.237 2.9861C36.5696 2.96384 36.8765 2.93958 37.1576 2.91333C37.4644 2.89106 37.6817 2.8668 37.8094 2.84055L37.8445 3.0229C37.5634 3.14447 37.2949 3.30278 37.039 3.49782C36.8089 3.69242 36.681 4.05757 36.6552 4.59328C36.6318 5.17752 36.6064 5.94435 36.5788 6.89377V17.9579C36.5788 20.6114 37.2308 22.5711 38.5349 23.8369C39.839 25.1028 41.7696 25.7357 44.3266 25.7357C45.0682 25.7357 45.912 25.6504 46.8581 25.4799C47.8043 25.2853 48.6864 24.8958 49.5047 24.3114C50.3485 23.7272 51.0517 22.8995 51.6143 21.8284C52.2024 20.7572 52.4964 19.3331 52.4964 17.5561C52.4964 15.6329 52.4847 13.9897 52.4614 12.6265C52.4614 11.2389 52.4497 10.0583 52.4263 9.08449C52.4263 8.08641 52.4146 7.23438 52.3912 6.5284C52.3678 5.82246 52.3423 5.17735 52.3147 4.59309C52.2913 4.05751 52.1507 3.69236 51.893 3.49763C51.6371 3.30303 51.3814 3.14472 51.1259 3.02268L51.161 2.84036C51.4421 2.88888 51.7617 2.93764 52.1199 2.98664C52.4777 3.0089 52.8101 3.02004 53.1171 3.02004C53.3983 3.02004 53.7179 3.0089 54.076 2.98664C54.4596 2.93812 54.792 2.88936 55.0733 2.84036L55.0975 3.02293ZM82.9297 9.70525L82.6996 9.77803C81.8046 7.9279 80.5261 6.45511 78.864 5.35966C77.2275 4.26418 75.1691 3.71644 72.6887 3.71644C71.3079 3.71644 69.991 3.99638 68.7381 4.55626C67.4851 5.09186 66.3856 5.85869 65.4395 6.85675C64.5189 7.83049 63.7774 9.01116 63.2148 10.3988C62.6523 11.7864 62.371 13.32 62.371 14.9997C62.371 16.6794 62.6523 18.213 63.2149 19.6007C63.7774 20.9882 64.519 22.1811 65.4395 23.1791C66.3856 24.1529 67.4851 24.9076 68.7381 25.4431C69.9911 25.9787 71.308 26.2464 72.6888 26.2464C75.1435 26.2464 77.138 25.8813 78.6723 25.151C80.2321 24.3963 81.5489 23.2522 82.6229 21.7186L82.853 21.7913L82.7766 24.1283C82.1884 24.7126 81.5108 25.2359 80.7436 25.6984C79.9765 26.1366 79.1455 26.514 78.2505 26.8304C77.3811 27.1226 76.4734 27.3417 75.5272 27.4877C74.5811 27.6583 73.635 27.7435 72.6889 27.7435C70.72 27.7435 68.8405 27.4392 67.0506 26.8306C65.2607 26.222 63.6881 25.37 62.3329 24.2745C60.9776 23.1548 59.9036 21.8159 59.111 20.2579C58.3183 18.6755 57.922 16.9228 57.922 14.9996C57.922 13.0765 58.3183 11.3359 59.111 9.77797C59.9036 8.1956 60.9776 6.84452 62.3329 5.72475C63.6881 4.60492 65.2607 3.75289 67.0506 3.16865C68.8406 2.56004 70.72 2.25574 72.6889 2.25574C73.635 2.25574 74.5811 2.32877 75.5273 2.47483C76.4734 2.62089 77.3811 2.85216 78.2505 3.16865C79.1455 3.46077 79.9765 3.83811 80.7436 4.30065C81.5108 4.73883 82.1884 5.25005 82.7765 5.83429L82.9297 9.70525ZM123.398 27.1231C123.27 27.1008 123.053 27.0766 122.746 27.0504C122.465 27.0504 122.158 27.0392 121.825 27.017C121.493 27.017 121.173 27.0058 120.866 26.9835H118.565C118.258 27.0058 117.952 27.0301 117.645 27.0563C117.364 27.0786 117.146 27.1028 116.993 27.1291L116.958 26.9828C117.214 26.8612 117.469 26.7029 117.725 26.5079C117.981 26.3133 118.121 25.9481 118.147 25.4124C118.17 24.8282 118.182 24.2196 118.182 23.5866C118.205 22.9537 118.217 22.2355 118.217 21.4322V18.6935V15.0055V11.3175V8.54228C118.217 7.73894 118.205 7.03297 118.182 6.42436C118.182 5.79143 118.17 5.18285 118.147 4.5986C118.123 4.06303 117.983 3.69787 117.725 3.50315C117.469 3.28405 117.213 3.11371 116.958 2.99212L116.993 2.84587C117.146 2.89439 117.364 2.93091 117.645 2.95542C117.952 2.95542 118.258 2.96655 118.565 2.98881C118.898 3.01108 119.218 3.02221 119.524 3.02221H120.866C121.173 2.99995 121.493 2.98881 121.825 2.98881C122.158 2.96655 122.465 2.94229 122.746 2.91604C123.053 2.89377 123.27 2.86951 123.398 2.84326L123.433 2.98957C123.152 3.11114 122.883 3.28147 122.627 3.50056C122.397 3.69516 122.269 4.06032 122.244 4.59602C122.22 5.18026 122.195 5.78885 122.167 6.42178V23.5841C122.19 24.217 122.216 24.8256 122.244 25.4098C122.267 25.9454 122.395 26.3105 122.627 26.5053C122.883 26.6999 123.152 26.8582 123.433 26.9802L123.398 27.1231Z" fill="white"/>
</g>
<defs>
<clipPath id="clip0_34_151">
<rect width="123.158" height="28.4211" fill="white" transform="translate(0.274902 0.789429)"/>
</clipPath>
</defs>
</svg>
