<svg width="24" height="24" viewBox="0 0 24 24" fill="none" xmlns="http://www.w3.org/2000/svg">
<path d="M12 3C14.4442 3 14.751 3.00991 15.7109 3.05371C16.6688 3.09742 17.3231 3.25018 17.8955 3.47266C18.4873 3.70261 18.9889 4.01046 19.4893 4.51074C19.9895 5.01106 20.2974 5.51275 20.5273 6.10449C20.7498 6.67691 20.9026 7.33124 20.9463 8.28906C20.9901 9.24901 21 9.55575 21 12C21 14.4442 20.9901 14.751 20.9463 15.7109C20.9026 16.6688 20.7498 17.3231 20.5273 17.8955C20.2974 18.4872 19.9895 18.9889 19.4893 19.4893C18.9889 19.9895 18.4872 20.2974 17.8955 20.5273C17.3231 20.7498 16.6688 20.9026 15.7109 20.9463C14.751 20.9901 14.4442 21 12 21C9.55575 21 9.24901 20.9901 8.28906 20.9463C7.33124 20.9026 6.67691 20.7498 6.10449 20.5273C5.51275 20.2974 5.01106 19.9895 4.51074 19.4893C4.01046 18.9889 3.70261 18.4873 3.47266 17.8955C3.25018 17.3231 3.09742 16.6688 3.05371 15.7109C3.00991 14.751 3 14.4442 3 12C3 9.55575 3.00991 9.24901 3.05371 8.28906C3.09742 7.33124 3.25018 6.67691 3.47266 6.10449C3.70261 5.51275 4.01046 5.01106 4.51074 4.51074C5.01106 4.01046 5.51275 3.70261 6.10449 3.47266C6.67691 3.25018 7.33124 3.09742 8.28906 3.05371C9.24901 3.00991 9.55575 3 12 3ZM12 4.62207C9.59696 4.62207 9.31224 4.63053 8.36328 4.67383C7.48593 4.71383 7.00952 4.86113 6.69238 4.98438C6.27229 5.14764 5.97215 5.34227 5.65723 5.65723C5.34227 5.97215 5.14764 6.27229 4.98438 6.69238C4.86113 7.00952 4.71383 7.48593 4.67383 8.36328C4.63053 9.31224 4.62207 9.59696 4.62207 12C4.62207 14.403 4.63053 14.6878 4.67383 15.6367C4.71383 16.5141 4.86113 16.9905 4.98438 17.3076C5.14764 17.7277 5.34231 18.0279 5.65723 18.3428C5.97215 18.6577 6.27229 18.8524 6.69238 19.0156C7.00952 19.1389 7.48593 19.2862 8.36328 19.3262C9.31213 19.3695 9.59678 19.3779 12 19.3779C14.4032 19.3779 14.6879 19.3695 15.6367 19.3262C16.5141 19.2862 16.9905 19.1389 17.3076 19.0156C17.7277 18.8524 18.0279 18.6577 18.3428 18.3428C18.6577 18.0279 18.8524 17.7277 19.0156 17.3076C19.1389 16.9905 19.2862 16.5141 19.3262 15.6367C19.3695 14.6878 19.3779 14.403 19.3779 12C19.3779 9.59696 19.3695 9.31224 19.3262 8.36328C19.2862 7.48593 19.1389 7.00952 19.0156 6.69238C18.8524 6.27229 18.6577 5.97215 18.3428 5.65723C18.0279 5.34227 17.7277 5.14764 17.3076 4.98438C16.9905 4.86113 16.5141 4.71383 15.6367 4.67383C14.6878 4.63053 14.403 4.62207 12 4.62207ZM12 7.37793C14.5524 7.37793 16.6221 9.44752 16.6221 12C16.6221 14.5524 14.5524 16.6221 12 16.6221C9.44752 16.6221 7.37793 14.5524 7.37793 12C7.37794 9.44753 9.44753 7.37794 12 7.37793ZM12 9C10.3431 9.00001 9.00001 10.3431 9 12C9 13.6568 10.3431 15 12 15C13.6568 15 15 13.6568 15 12C15 10.3431 13.6568 9 12 9ZM16.8047 6.11621C17.4008 6.11647 17.8835 6.59922 17.8838 7.19531C17.8838 7.79163 17.4009 8.27513 16.8047 8.27539C16.2082 8.27539 15.7246 7.79179 15.7246 7.19531C15.7249 6.59906 16.2084 6.11621 16.8047 6.11621Z" fill="black"/>
</svg>
