<svg width="24" height="24" viewBox="0 0 24 24" fill="none" xmlns="http://www.w3.org/2000/svg">
<path d="M6.96191 20H3.4541V9.13086H6.96191V20ZM16.5479 9.02637C19.0411 9.02646 20.9999 10.5898 21 13.9561V20H17.0215V14.375C17.0214 12.903 16.3994 11.8985 15.0312 11.8984C13.9849 11.8984 13.4029 12.576 13.1318 13.2295C13.0302 13.4641 13.0459 13.7914 13.0459 14.1182V20H9.10449C9.1045 19.9978 9.15528 10.0367 9.10449 9.13086H13.0459V10.8369C13.2787 10.0911 14.5381 9.02637 16.5479 9.02637ZM5.14355 4C6.4375 4.00019 7.23325 4.81139 7.25879 5.88379C7.25879 6.9369 6.4376 7.77133 5.11914 7.77148H5.09375C3.82376 7.77148 3 6.93993 3 5.88672C3.00024 4.81324 3.84835 4 5.14355 4Z" fill="black"/>
</svg>
