<svg width="154" height="26" viewBox="0 0 154 26" fill="none" xmlns="http://www.w3.org/2000/svg">
<g clip-path="url(#clip0_34_153)">
<path fill-rule="evenodd" clip-rule="evenodd" d="M0.432617 1.08028L2.74749 3.69085V22.7978L1.03181 25.2979L11.5393 25.314L9.64538 23.0135L9.44872 16.1325L19.5802 16.1874C22.6511 15.1651 25.8079 12.9853 25.9596 8.57859C25.9112 4.30809 23.3039 1.56905 20.2768 1.02411L0.432617 1.08028ZM9.07329 2.30221V14.5771L16.8466 14.6333C18.6153 13.207 19.9562 12.1147 19.9025 8.69032C19.8772 5.8981 19.2878 3.4632 16.6857 2.30281L9.07329 2.30221ZM30.8223 0.941055L33.1372 3.55223V22.6592L31.4215 25.1604L41.9284 25.1754L40.0345 22.8749L39.8379 15.9938H39.88L50.7352 25.253L59.7438 25.1795L51.5218 18.0678H44.6579L42.2387 16.007L49.9693 16.0488C53.0402 15.0264 56.1965 12.8467 56.3487 8.43996C56.3009 4.17007 53.6936 1.43043 50.666 0.886083L30.8223 0.941055ZM39.4624 2.16299V14.4379L47.2357 14.4941C49.0051 13.0678 50.3453 11.9755 50.2917 8.5505C50.2663 5.75888 49.6769 3.32338 47.0749 2.16299H39.4624ZM68.4167 0.913569H77.4767L89.2702 22.7978C89.7805 24.4876 91.3071 24.2791 92.3261 25.02H80.9074L82.6231 24.4834L82.5159 22.854L79.5672 18.1324L69.5424 18.1885L67.3983 22.7435C67.3268 23.2615 66.7726 23.6547 67.1838 24.2982L67.9883 25.0756L63.0563 24.9644L65.2011 24.2982L73.295 7.24611V6.07915L69.8752 1.51707L68.4167 0.913569ZM70.1762 16.6296L74.34 8.74649L78.6751 16.5854L70.1762 16.6296ZM129.681 0.961371H138.741L150.535 22.8456C151.045 24.5354 152.571 24.3269 153.591 25.0678H142.171L143.887 24.53L143.78 22.9006L140.832 18.1802L130.807 18.2363L128.663 22.7901C128.591 23.3093 128.037 23.7025 128.448 24.346L129.252 25.1234L124.321 25.0122L126.465 24.346L134.559 7.29391V6.12635L131.14 1.56487L129.681 0.961371ZM131.441 16.678L135.604 8.79489L139.94 16.6326L131.441 16.678ZM95.4593 0.685913L111.599 0.774944C116.796 1.9921 120.103 5.16733 121.128 10.7064L121.085 15.0264C120.137 19.962 117.032 23.3673 111.556 25.0911L95.3734 25.1365L95.3711 24.6137C97.8313 24.4279 98.0279 24.147 98.0342 22.6867V3.00131C98.0066 1.92159 97.7909 1.24938 95.416 1.17528L95.4593 0.685913ZM104.633 2.37033L104.618 23.6684C106.746 23.6756 108.593 23.8752 109.636 23.3428C112 22.263 113.098 20.6049 113.199 19.0472L113.142 6.47112C113.143 4.45927 110.959 3.03896 109.699 2.66909C108.797 2.33507 106.998 2.32133 104.633 2.37033Z" fill="white" stroke="white" stroke-width="0.808567" stroke-miterlimit="2.613"/>
</g>
<defs>
<clipPath id="clip0_34_153">
<rect width="153.158" height="25.2632" fill="white" transform="translate(0.432617 0.368408)"/>
</clipPath>
</defs>
</svg>
