<svg width="132" height="28" viewBox="0 0 132 28" fill="none" xmlns="http://www.w3.org/2000/svg">
<path fill-rule="evenodd" clip-rule="evenodd" d="M118.563 1.42644H131.433V3.47726C131.059 3.35173 130.668 3.28702 130.274 3.28561H122.875V12.8687H130.072C130.589 12.8687 131.049 12.8119 131.432 12.7152V14.7571C131.106 14.6806 130.657 14.6418 130.1 14.6418H122.875V24.5509H130.053C130.446 24.5509 130.915 24.4935 131.432 24.3688V26.573H118.581C118.684 26.1854 118.736 25.7859 118.735 25.3849V2.64322C118.735 2.14526 118.677 1.7333 118.563 1.42644ZM115.583 7.95264L111.864 7.92454C111.682 5.83494 110.485 3.81222 107.849 3.4396C102.204 2.93153 100.613 9.1312 100.757 13.6645C100.902 18.0342 101.6 24.7521 107.427 24.7521C109.872 24.7521 112.219 22.2409 112.142 20.1232L115.583 20.0951C115.333 24.4649 110.322 26.9945 107.935 27.0811C99.7804 27.3593 96.3678 21.9251 96.1958 14.1714C96.043 7.14839 98.9177 0.908813 106.977 0.908813C113.877 1.00492 115.209 5.08745 115.583 7.95264ZM57.5849 23.7168L60.0482 21.6564C61.3319 23.7747 62.3862 24.7419 64.9356 24.7419C67.5225 24.7419 69.6987 23.1705 69.6987 20.3919C69.6987 19.0211 69.1423 17.8999 68.0407 17.0569C67.5417 16.6634 66.2771 15.9834 64.2836 15.0347C61.3032 13.6072 58.3998 11.7474 58.3998 8.01053C58.3998 3.29516 62.4053 1.21568 66.6312 1.06168C69.1327 0.96614 72.2379 2.34703 73.4929 3.89877L70.9919 5.82483C70.5458 4.9924 69.8827 4.29631 69.0729 3.81045C68.263 3.32458 67.3367 3.06709 66.3923 3.06529C63.2006 3.06529 60.6709 6.76453 63.3158 9.31386C63.9863 9.96525 65.3576 10.7701 67.4467 11.7283C70.7812 13.2907 73.6272 15.1589 73.6272 19.2898C73.6272 20.7173 73.2535 22.0493 72.5156 23.2666C71.0307 25.7199 68.5482 26.9468 65.0794 26.9468C61.0924 26.9468 60.3073 26.0363 57.5849 23.7168ZM22.4916 1.42644H35.3512V3.47726C34.9777 3.35178 34.5864 3.28707 34.1923 3.28561H26.7944V12.8687H33.9911C34.5088 12.8687 34.9691 12.8119 35.3518 12.7152V14.7571C35.0258 14.6806 34.5756 14.6418 34.0299 14.6418H26.7944V24.5509H33.972C34.3649 24.5509 34.8347 24.4935 35.3518 24.3688V26.573H22.5113C22.6051 26.1839 22.6532 25.7852 22.6546 25.3849V2.64322C22.6546 2.14526 22.5967 1.7333 22.4916 1.42644ZM0 1.42644H4.67659V1.65687C4.67659 1.86762 4.74347 2.14526 4.85869 2.4999L11.4512 22.3466L18.2174 2.41335C18.3225 2.07838 18.3804 1.75241 18.3804 1.42644H20.6515C20.4217 1.82884 20.2491 2.18404 20.1435 2.4999L12.419 25.5479C12.3426 25.7682 12.2757 26.1133 12.2184 26.5736H8.38482C8.32689 26.2252 8.24043 25.8821 8.12629 25.5479L0.555841 2.682C0.380964 2.26029 0.198653 1.8417 0.00899237 1.42644H0ZM49.6693 14.5367C52.7357 13.9326 55.0839 11.585 55.0839 8.23084C55.0839 3.83133 51.4037 1.42587 47.283 1.42587H39.7507C39.8558 1.80974 39.9137 2.21214 39.9137 2.63366V25.3647C39.9137 25.8536 39.8558 26.2656 39.7507 26.5725H44.2357C44.126 26.1793 44.0712 25.7728 44.0727 25.3647V14.92L45.5098 15.0735L53.0235 26.5725H57.5371L49.6693 14.5367ZM48.8932 12.6202C48.0788 13.1946 47.1009 13.4818 45.9796 13.4818H44.0632V3.25807H45.7784C47.2453 3.25807 48.3851 3.6217 49.2 4.34952C50.3117 5.35666 50.8771 6.71732 50.8771 8.42306C50.8771 10.2631 50.2156 11.6626 48.8932 12.6208M95.4483 25.5288L87.0731 2.26048C86.98 1.99145 86.9252 1.7107 86.9101 1.42644H83.2867C83.2867 1.72375 83.239 2.0396 83.1237 2.35602L75.0076 25.5288C74.9013 25.8632 74.7294 26.2088 74.4995 26.573H76.8375C76.8285 26.1897 76.8763 25.8351 76.982 25.5288L79.3863 18.6951H88.6344L91.0112 25.5293C91.1359 25.902 91.1933 26.247 91.1933 26.573H96.043C95.7642 26.1802 95.5635 25.8255 95.4483 25.5288ZM80.0191 16.8455L83.9291 5.48986L87.9448 16.8455H80.0191Z" fill="white"/>
</svg>
