<svg width="24" height="24" viewBox="0 0 24 24" fill="none" xmlns="http://www.w3.org/2000/svg">
<path d="M12.0039 6C12.0039 6 15.7819 6.00038 18.3008 6.1875C18.6523 6.23024 19.4199 6.23333 20.1045 6.96973C20.6439 7.53057 20.8203 8.80469 20.8203 8.80469C20.824 8.83518 21 10.316 21 11.7959V13.1982C21 14.6941 20.8203 16.1895 20.8203 16.1895C20.82 16.1915 20.6433 17.4629 20.1045 18.0234C19.4199 18.7599 18.6523 18.7633 18.3008 18.8066C15.7819 18.9938 12 19 12 19C12 19 7.31988 18.9565 5.87988 18.8145C5.47937 18.7376 4.57964 18.7599 3.89453 18.0234C3.35586 17.4628 3.17998 16.1916 3.17969 16.1895C3.17969 16.1895 3.00002 14.6941 3 13.1982V11.7959C3 10.316 3.17604 8.83518 3.17969 8.80469C3.17969 8.80469 3.35522 7.53066 3.89453 6.96973C4.57966 6.23329 5.34709 6.23024 5.69922 6.1875C8.21809 6.00038 11.9961 6 11.9961 6H12.0039ZM10.1416 14.8975L15.0039 12.3096L10.1406 9.7041L10.1416 14.8975Z" fill="black"/>
</svg>
