<svg width="73" height="30" viewBox="0 0 73 30" fill="none" xmlns="http://www.w3.org/2000/svg">
<g clip-path="url(#clip0_34_149)">
<path d="M68.5903 29.1065L57.9464 0.0254746L57.9391 0.00622559H57.729L55.5372 5.98227L51.5469 16.8618L51.5376 16.8532C50.1546 15.6422 48.2034 14.8852 45.7461 14.6034L44.9967 14.5266L45.7402 14.432C49.7925 13.7093 52.5165 11.1696 52.5165 8.10972C52.5165 3.91371 48.5395 0.984933 42.8428 0.984933H30.9899V1.19739H34.434V22.8789L26.0695 0.0254033L26.0619 0.00622559H25.8518L23.6599 5.98227L15.206 29.0317L15.154 29.0376C15.0095 29.0553 14.8666 29.0694 14.7252 29.08C14.5126 29.0965 14.3011 29.1064 14.0891 29.1064H5.54704L21.7843 1.19731L21.905 0.987571H2.04618V9.62113H2.25689C2.29425 5.41585 4.76217 1.19731 10.2148 1.19731H16.7931L0.433105 29.3155H22.4731V21.044H22.2624C22.2337 24.7093 20.1399 28.1907 15.5868 28.9768L15.4421 29.0013L18.9096 19.5432H28.6232L32.1234 29.1065H28.6706V29.3156H42.2226V29.1065H38.7551V14.6808H42.7561C46.8277 14.6808 49.163 16.4859 49.163 19.6318V22.1907C49.163 22.4726 49.1823 22.8849 49.2036 23.2296V23.2422L47.0531 29.1052H44.2437V29.3143H50.0591V29.1052H47.2799L49.2383 23.7663C49.2423 23.8179 49.2444 23.849 49.2444 23.849L49.2984 24.3301L49.3504 24.6484C49.6771 26.617 50.4359 28.0642 51.6049 28.9496L51.773 29.0707C52.6612 29.6835 53.7648 29.9938 55.0551 29.9938C56.7642 29.9938 57.9038 29.571 58.8447 28.5758L58.7213 28.4606C57.8544 29.2547 57.1269 29.5763 56.2154 29.5763C54.6623 29.5763 53.8495 27.7069 53.8495 25.8633V22.278C53.8578 21.3884 53.7174 20.5036 53.434 19.6596L53.3954 19.5484V19.5444H60.5003L64.0004 29.1078H60.5477V29.3169H72.2752V29.1078L68.5903 29.1065ZM18.9869 19.3341L23.7721 6.28805L28.5466 19.3341H18.9869ZM38.7571 14.471V1.19731H41.8111C45.8908 1.19731 48.0447 3.60402 48.0447 8.15478C48.0447 12.9946 46.8083 14.471 42.7561 14.471H38.7571ZM53.3126 19.3341L53.2919 19.2824C52.9762 18.5193 52.5165 17.8231 51.9376 17.2311L51.7376 17.0325L51.7162 17.0127L55.6465 6.28805L60.421 19.3341H53.3126Z" fill="white"/>
</g>
<defs>
<clipPath id="clip0_34_149">
<rect width="71.8421" height="30" fill="white" transform="translate(0.433105)"/>
</clipPath>
</defs>
</svg>
